<?xml version="1.0" encoding="UTF-8" standalone="no"?>
<!-- Created with Inkscape (http://www.inkscape.org/) -->

<svg
   version="1.1"
   id="svg1"
   width="1676.5144"
   height="2255.7327"
   viewBox="0 0 1676.5144 2255.7326"
   xmlns="http://www.w3.org/2000/svg"
   xmlns:svg="http://www.w3.org/2000/svg">
  <defs
     id="defs1" />
  <g
     id="g1"
     transform="translate(-514.8606,-238.12308)">
    <g
       id="group-R5">
      <path
         id="path2"
         d="M 2191.3751,2493.8558 H 514.86057 V 238.12308 H 2191.3751 V 2493.8558"
         style="fill:none;fill-opacity:1;fill-rule:nonzero;stroke:none;stroke-width:0.0960403" />
      <path
         id="path3"
         d="m 16307.8,4920.9 c -49.6,4728.9 95.4,7667 -184.2,11577.9 -33.5,469.3 -94.6,960.5 -378.9,1335.4 -356.9,470.7 -1065,578.1 -1456.2,584 -2299,34.7 -7125.33,-104.3 -8180.88,-172.8 -637.22,-41.4 -1344.73,-115.8 -1765.73,-595.9 -389.71,-444.5 -405.59,-1093.8 -400.96,-1684.9 15.39,-1962.9 210.04,-9276.7 374.18,-11104.5 64.33,-716.1 223.94,-1134.4 688.88,-1590.5 361.84,-355 1070.81,-409.1 1471.92,-409 1412.61,0.2 2528.99,10.9 3578.49,35.1 -314.86,260.6 -655.42,472.8 -921.5,774.4 -262.03,262 -377.21,782.9 -173.54,1118.5 l -3073.97,-68.1 c 0,0 -243.94,7839.5 -335.42,11866 5409.43,163.1 8954.33,221.4 8954.33,221.4 l 369.5,-11888.1 -587.2,-13 c 420.2,-494.8 728.2,-1045 1131.8,-1595.3 18.4,-23 36.8,-46 55.3,-69 604.9,270.5 853.6,857.4 834.1,1678.4"
         style="fill:#e9b44d;fill-opacity:1;fill-rule:nonzero;stroke:none"
         transform="matrix(0.13333333,0,0,-0.13333333,0,2699.8)" />
      <path
         id="path4"
         d="m 6712.39,14986.8 c 20.9,472.6 589.63,749 968.38,461.8 208.78,-171.3 351.55,-528.9 237.01,-832.3 -165.28,-356.7 -673.59,-449 -992.63,-249.6 -211.7,123.5 -236.56,398.9 -212.76,620.1 z m 1137.74,-484.5 c 4.49,5.8 12.63,16.7 12.63,17 0.16,-3.6 -6.43,-10.8 -12.63,-17 z m -999.96,-454.4 c 506.81,-250.9 1242.54,-19.3 1396.3,555.9 110.61,464.8 -125.56,1036.1 -585.71,1212.2 -534.47,220.6 -1173.56,-139.4 -1248.92,-716.5 -81.06,-396.5 34.34,-881.4 438.33,-1051.6"
         style="fill:#222222;fill-opacity:1;fill-rule:nonzero;stroke:none"
         transform="matrix(0.13333333,0,0,-0.13333333,0,2699.8)" />
      <path
         id="path5"
         d="m 6789.57,12167.4 c 20.9,472.7 589.61,749.2 968.4,461.9 208.8,-171.3 351.51,-528.8 237.01,-832.3 -165.27,-356.7 -673.61,-449 -992.65,-249.6 -211.66,123.5 -236.56,398.9 -212.76,620 z m 137.78,-938.8 c 506.78,-250.8 1242.56,-19.4 1396.3,555.9 110.64,464.8 -125.56,1036.1 -585.69,1212.2 -534.47,220.6 -1173.59,-139.4 -1248.91,-716.5 -81.09,-396.5 34.31,-881.4 438.3,-1051.6"
         style="fill:#222222;fill-opacity:1;fill-rule:nonzero;stroke:none"
         transform="matrix(0.13333333,0,0,-0.13333333,0,2699.8)" />
      <path
         id="path6"
         d="M 7815.09,10177.5 C 7280.64,10398 6641.57,10038 6566.23,9460.9 c -81.08,-396.5 34.33,-881.4 438.3,-1051.6 123.46,-61.1 260.52,-93.4 399.43,-99.2 -38.77,107.8 -67.4,219.6 -92.28,328.5 -82.76,16 -162.04,45.7 -232.18,89.5 -211.64,123.5 -236.56,398.9 -212.73,620.1 20.89,472.6 589.63,749.1 968.38,461.8 205.18,-168.3 346.4,-516.5 242.52,-816.5 81.28,-79.2 157.14,-162.6 227.51,-247.7 41.64,66.3 74.31,139.5 95.67,219.4 110.61,464.8 -125.58,1036.2 -585.76,1212.3"
         style="fill:#222222;fill-opacity:1;fill-rule:nonzero;stroke:none"
         transform="matrix(0.13333333,0,0,-0.13333333,0,2699.8)" />
      <path
         id="path7"
         d="m 8185.71,6291.7 c -65.15,-454.4 -675.57,-609.4 -1029.01,-382.9 -211.66,123.5 -236.56,399 -212.73,620.1 160.64,948.4 1340.09,637.2 1241.74,-237.2 z m -237.62,1037.5 c -261.98,122.7 -580.94,127 -847.91,-17.2 -432.63,-242 -569.42,-818.9 -425.84,-1270.7 428.17,-1010.4 2011.34,-532.3 1823.05,512.6 -162.86,274.2 -342.97,537.2 -549.3,775.3"
         style="fill:#222222;fill-opacity:1;fill-rule:nonzero;stroke:none"
         transform="matrix(0.13333333,0,0,-0.13333333,0,2699.8)" />
      <path
         id="path8"
         d="m 9120.25,14888.6 c 1393.15,22.6 2785.85,72.2 4177.05,148.6 202.9,-0.1 205.8,318.4 0,316.4 -1086.3,-59.7 -2173.6,-103 -3261.2,-129.9 -305.27,-7.5 -610.55,-13.8 -915.85,-18.8 -82.69,-1.3 -162.06,-71.8 -158.19,-158.2 3.79,-84.5 69.54,-159.6 158.19,-158.1"
         style="fill:#222222;fill-opacity:1;fill-rule:nonzero;stroke:none"
         transform="matrix(0.13333333,0,0,-0.13333333,0,2699.8)" />
      <path
         id="path9"
         d="m 9663.15,12097.7 c 1216.25,82.4 2436.45,106.6 3654.95,72.5 203,-2.3 205.8,316.2 0,316.4 -1218.5,34.1 -2438.7,9.9 -3654.95,-72.5 -203.62,3.2 -204.63,-320.7 0,-316.4"
         style="fill:#222222;fill-opacity:1;fill-rule:nonzero;stroke:none"
         transform="matrix(0.13333333,0,0,-0.13333333,0,2699.8)" />
      <path
         id="path10"
         d="m 9621.63,9232.2 c 1166.07,112.5 2337.27,172.4 3508.77,179.4 203,-1.4 205.7,317.1 -0.1,316.4 -1171.4,-7.1 -2342.6,-66.9 -3508.67,-179.4 -203.78,3.4 -204.31,-321.9 0,-316.4"
         style="fill:#222222;fill-opacity:1;fill-rule:nonzero;stroke:none"
         transform="matrix(0.13333333,0,0,-0.13333333,0,2699.8)" />
      <path
         id="path11"
         d="m 13402.4,6886.4 c -212.6,10.1 -425.4,15.9 -638.2,18 82.9,-105.8 163.9,-213.4 245.6,-320.4 131.3,-3.1 262.3,-7.5 392.6,-13.9 202.8,-2.9 205.9,315.8 0,316.3"
         style="fill:#222222;fill-opacity:1;fill-rule:nonzero;stroke:none"
         transform="matrix(0.13333333,0,0,-0.13333333,0,2699.8)" />
      <path
         id="path12"
         d="m 8543.72,15985.3 c -61.88,56.8 -162.81,64 -223.74,0 -328.61,-345.2 -646.25,-700.9 -952.13,-1066.4 -35.57,53.5 -71.93,117.8 -92.73,191.1 -13.94,152.1 -337.35,215.3 -310.47,-69.4 88.55,-167.2 242.02,-698.6 498.43,-500.4 269.13,327.5 547.42,647.3 834.7,958.9 95.08,141.7 403.2,296.3 245.94,486.2"
         style="fill:#e9b44d;fill-opacity:1;fill-rule:nonzero;stroke:none"
         transform="matrix(0.13333333,0,0,-0.13333333,0,2699.8)" />
      <path
         id="path13"
         d="m 8648.68,13447.4 c -409.09,-390.2 -791.05,-808.8 -1142.76,-1251.4 -14.34,14.8 -28.47,30.9 -40.87,48.4 -157.59,341.8 -440.71,176 -349.85,-41.4 101.26,-147.1 313.39,-517.9 520.16,-350.2 294.15,379.5 610.16,741.9 946.48,1084.5 95.27,97.1 192.18,192.5 290.58,286.4 145.31,142.4 -78.42,368.8 -223.74,223.7"
         style="fill:#e9b44d;fill-opacity:1;fill-rule:nonzero;stroke:none"
         transform="matrix(0.13333333,0,0,-0.13333333,0,2699.8)" />
      <path
         id="path14"
         d="m 8648.68,10584.6 c -321.32,-337 -637.06,-679.5 -966.71,-1008.6 -44.66,-57.5 -110.47,-110.3 -161.28,-153.3 -86,93.7 -140.75,188.7 -244.42,244.6 -129.99,41.4 -254.01,-117.5 -178.66,-232.4 129.66,-132.2 327.13,-506.9 540.77,-341.3 431.24,402.4 826.72,841.2 1234.04,1267.3 144.37,143.5 -79.28,369.6 -223.74,223.7"
         style="fill:#e9b44d;fill-opacity:1;fill-rule:nonzero;stroke:none"
         transform="matrix(0.13333333,0,0,-0.13333333,0,2699.8)" />
      <path
         id="path15"
         d="m 16034.3,2787.1 c -1042.1,1570.3 -2274.3,3006.2 -3429.9,4492.7 -327,356.5 -726.5,799.5 -1257.3,734.8 -313.4,-44.9 -609.8,-309.8 -660,-628.5 -177.2,-21.1 -426.4,-26.6 -593.7,-185.8 -106.35,-85.3 -194.26,-194.9 -253.03,-317.7 -178.85,254.3 -357.7,508.7 -536.55,763.1 -422.71,519.1 -775.64,1371.8 -1418.51,1619.4 -804.49,119 -844.61,-724.5 -540.1,-1262.9 484.74,-996.5 1134.37,-1902.1 1749.63,-2820.7 -459.67,-367.9 -573.97,-1057.9 -215.76,-1535 276.04,-414 703.54,-711.5 1179.32,-850.4 264.3,-95.1 592.6,-79.7 808.2,-275.8 167.9,-209.6 333.2,-422.3 498.1,-634.4 58.5,-78.8 244.9,-392.5 396.8,-103.1 94.5,81.8 -653.6,909 -665.6,955.1 -308.6,308.6 -798.3,262.4 -1175.99,441.9 -593.66,250 -1261.96,977.2 -763.59,1609.8 36.59,45.8 76.56,88.9 119.28,129.1 79.77,-115.1 159.98,-229.9 240.7,-344.3 66.2,-99 160.6,-257 299.71,-174.2 66.69,43 108.11,144.4 56.74,216.5 -295.52,414.5 -582.44,835.3 -866.2,1257.9 -256.39,442.3 -2308.91,3173.9 -1195.97,3082.7 340.26,-149.6 487.08,-451 695.71,-725.6 365.44,-519.7 730.89,-1039.5 1096.34,-1559.2 106.92,-111.5 169.32,-367.4 359.79,-330.4 63.38,20.6 120.78,81.7 116.18,152.6 -35.9,301.1 292.2,653.7 629.3,552.3 202.6,-99.6 330.2,11.3 283.9,227.8 1.5,46.3 4.3,63.9 29.4,135.2 401.5,740.3 1144.2,-75.8 1488.2,-508.7 717.3,-925.8 1492,-1877.5 2172.8,-2768.9 373.1,-491.5 750,-982.2 1078.9,-1505 98.8,-174.3 380.2,-18.2 273.2,159.7"
         style="fill:#222222;fill-opacity:1;fill-rule:nonzero;stroke:none"
         transform="matrix(0.13333333,0,0,-0.13333333,0,2699.8)" />
    </g>
  </g>
</svg>
